<svg width="13" height="21" viewBox="0 0 13 21" fill="none" xmlns="http://www.w3.org/2000/svg">
<path d="M3.36719 0.398438C3.10938 0.140625 2.78125 0 2.39453 0C1.62109 0 1 0.609375 1 1.38281C1 1.76953 1.16406 2.12109 1.43359 2.39062L9.63672 10.4062L1.43359 18.3984C1.16406 18.668 1 19.0312 1 19.4062C1 20.1797 1.62109 20.7891 2.39453 20.7891C2.78125 20.7891 3.10938 20.6484 3.36719 20.3906L12.4844 11.4844C12.8125 11.1797 12.9648 10.8047 12.9766 10.3945C12.9766 9.98438 12.8125 9.63281 12.4844 9.31641L3.36719 0.398438Z" fill="white"/>
</svg>
