<svg width="20" height="20" viewBox="0 0 20 20" fill="none" xmlns="http://www.w3.org/2000/svg">
<path fill-rule="evenodd" clip-rule="evenodd" d="M7.5 1.25417H12.5V2.92083H7.5V1.25417ZM9.16667 12.0875V7.0875H10.8333V12.0875H9.16667ZM15.8583 6.57083L17.0417 5.3875C16.6833 4.9625 16.2917 4.5625 15.8667 4.2125L14.6833 5.39583C13.3917 4.3625 11.7667 3.74583 10 3.74583C5.85833 3.74583 2.5 7.10417 2.5 11.2458C2.5 15.3875 5.85 18.7458 10 18.7458C14.15 18.7458 17.5 15.3875 17.5 11.2458C17.5 9.4875 16.8833 7.8625 15.8583 6.57083ZM4.16667 11.2542C4.16667 14.4792 6.775 17.0875 10 17.0875C13.225 17.0875 15.8333 14.4792 15.8333 11.2542C15.8333 8.02917 13.225 5.42083 10 5.42083C6.775 5.42083 4.16667 8.02917 4.16667 11.2542Z" fill="#1E1E1E" fill-opacity="0.9"/>
</svg>
